<svg xmlns="http://www.w3.org/2000/svg" width="1024" height="1024" viewBox="0 0 1024 1024" version="1.1"><path d="M 178.216 102.019 C 156.045 107.827, 140.180 124.474, 135.525 146.815 C 134.183 153.253, 134 183.084, 134 395.434 C 134 606.321, 134.191 637.857, 135.514 645.619 C 139.104 666.681, 152.498 682.762, 173 690.624 L 180.500 693.500 240.830 693.500 C 299.396 693.500, 301.202 693.443, 302.580 691.559 C 304.501 688.933, 304.394 688.303, 301.545 685.455 L 299.091 683 241.727 683 C 192.181 683, 183.623 682.783, 178.932 681.407 C 162.245 676.511, 149.233 662.026, 145.438 644.122 C 144.256 638.544, 144.033 599.741, 144.025 398 C 144.018 239.903, 144.362 156.363, 145.035 152.213 C 148.145 133.050, 160.420 118.394, 177.923 112.947 C 184.068 111.034, 189.972 111, 511.984 111 C 836.152 111, 839.861 111.022, 846.217 112.985 C 854.011 115.393, 863.147 121.156, 868.357 126.952 C 874.090 133.329, 878.783 144.004, 880.030 153.500 C 880.745 158.951, 880.988 238.125, 880.790 402 L 880.500 642.500 878.265 649.072 C 872.471 666.108, 859.090 678.714, 843.322 681.993 C 840.670 682.544, 830.806 683.109, 821.402 683.248 C 802.759 683.523, 800.639 684.115, 801.199 688.891 C 801.749 693.576, 804.639 694.155, 825 693.659 C 845.058 693.171, 849.471 692.312, 860.500 686.748 C 869.316 682.301, 879.803 671.384, 884.273 662 C 886.238 657.875, 888.443 651.575, 889.173 648 C 891.160 638.265, 891.135 153.081, 889.147 145 C 884.031 124.210, 867.269 107.312, 846.489 101.997 C 838.760 100.020, 835.343 100.001, 512.090 100.055 C 194.024 100.109, 185.310 100.160, 178.216 102.019 M 199.035 158.934 C 196.942 162.845, 198.038 164.964, 207 174.338 C 211.950 179.516, 216 184.236, 216 184.828 C 216 185.419, 211.725 190.164, 206.500 195.372 C 196.750 205.090, 195.569 207.395, 198.829 210.345 C 202.484 213.653, 204.695 212.429, 217.069 200.250 C 232.927 184.641, 232.922 185.684, 217.214 169.232 C 207.812 159.386, 204.964 156.968, 202.785 156.982 C 201.138 156.993, 199.663 157.760, 199.035 158.934 M 339.528 160.244 C 335.833 162.312, 328.723 181.841, 324.507 201.500 C 320.728 219.121, 319.562 231.193, 319.630 252 C 319.727 282.348, 323.437 303.789, 333.945 334.731 L 338.847 349.167 330.553 378.334 L 322.258 407.500 310.665 416 C 297.285 425.809, 295.491 428.306, 297.576 434.215 C 299.211 438.849, 307.796 452.222, 316.344 463.452 C 329.375 480.570, 353.303 503.042, 372 515.721 C 386.041 525.242, 402.706 534.627, 403.739 533.594 C 403.994 533.340, 409.219 534.933, 415.351 537.134 C 426.989 541.312, 450.383 548.035, 452.990 547.951 C 453.821 547.925, 451.125 546.637, 447 545.091 C 437.412 541.496, 416.620 531.278, 402.500 523.222 C 371.617 505.602, 338.469 476.143, 317.859 448 C 312.065 440.088, 306.503 431.091, 307.129 430.644 C 307.333 430.497, 312.897 426.415, 319.494 421.572 L 331.487 412.766 334.680 400.633 C 336.436 393.960, 340.555 379.155, 343.833 367.734 L 349.792 346.967 346.956 340.218 C 345.397 336.506, 342.270 327.176, 340.009 319.484 C 328.978 281.966, 327.017 241.568, 334.487 205.716 C 337.095 193.199, 342.665 175, 343.888 175 C 344.325 175, 347.347 177.813, 350.604 181.250 C 377.892 210.056, 398.667 239.957, 417.825 277.998 C 427.441 297.090, 428.116 298.152, 427.645 293.439 C 426.023 277.215, 399.965 232, 372.641 198 C 367.116 191.125, 363.540 186.175, 364.696 187 C 365.851 187.825, 375.277 195.700, 385.643 204.500 C 408.287 223.725, 430.072 243.937, 440.002 254.935 C 444.008 259.371, 447.671 263, 448.142 263 C 448.614 263, 449 260.361, 449 257.136 L 449 251.272 453.663 250.633 C 456.228 250.281, 458.418 250.107, 458.530 250.247 C 458.764 250.539, 459.974 327.869, 460.012 345 L 460.037 356.500 473.025 367.983 C 480.168 374.298, 486.219 380.148, 486.471 380.983 C 486.723 381.817, 487.868 387.886, 489.017 394.469 C 490.165 401.052, 491.306 406.640, 491.552 406.886 C 493.040 408.374, 493.180 404.479, 492.060 392.754 L 490.794 379.500 478.038 367 C 470.576 359.688, 465.024 353.422, 464.660 351.902 C 464.318 350.473, 464.009 328.423, 463.972 302.902 L 463.906 256.500 471.703 255.213 C 484.468 253.107, 529.059 252.585, 545.376 254.351 C 553.008 255.177, 559.629 256.229, 560.088 256.688 C 560.547 257.147, 560.508 279.334, 560 305.991 L 559.077 354.459 546.726 366.136 L 534.375 377.814 533.138 389.157 C 532.457 395.396, 531.678 401.962, 531.405 403.750 C 531.132 405.538, 531.318 407, 531.817 407 C 532.316 407, 533.887 401.078, 535.307 393.840 C 537.884 380.712, 537.901 380.669, 542.695 375.771 C 545.338 373.071, 551.212 367.663, 555.750 363.754 L 564 356.645 564 334.986 C 564 323.073, 564.298 299.084, 564.661 281.677 L 565.322 250.028 569.161 250.642 C 575.515 251.658, 573.623 249.357, 566.250 247.102 C 554.997 243.660, 535.621 241.711, 512 241.644 C 489.453 241.580, 479.433 242.528, 460.340 246.534 L 449.181 248.876 437.840 237.341 C 419.123 218.301, 396.432 199.026, 363.712 174.371 C 353.379 166.584, 344.105 159.999, 343.104 159.738 C 342.103 159.476, 340.494 159.704, 339.528 160.244 M 679.092 160.604 C 674.756 162.427, 649.028 181.721, 632 195.920 C 614.899 210.180, 593.894 229.328, 583.249 240.361 L 575 248.912 575 256.560 L 575 264.209 590.291 248.854 C 606.214 232.865, 627.723 213.261, 644 199.901 C 649.225 195.612, 655.507 190.392, 657.959 188.301 C 663.360 183.697, 662.493 185.357, 654.983 194 C 640.345 210.846, 619.815 240.496, 609.284 260 C 600.926 275.479, 594.802 290.327, 595.191 294.170 C 595.455 296.781, 596.621 294.987, 603.193 281.863 C 618.204 251.886, 636.476 224.107, 658.101 198.384 C 669.795 184.474, 679.216 174, 680.032 174 C 681.828 174, 689.087 202.995, 692.174 222.500 C 694.039 234.287, 693.757 268.753, 691.673 283.789 C 689.589 298.821, 683.278 323.736, 678.023 337.683 L 674.116 348.050 677.968 361.775 C 680.086 369.324, 684.161 383.855, 687.022 394.066 L 692.224 412.632 703.681 421.046 C 709.982 425.674, 715.626 430.049, 716.224 430.770 C 718.296 433.266, 699.797 458.462, 684.202 474.384 C 653.774 505.449, 615.768 530.514, 577 545.084 C 572.875 546.634, 569.961 547.925, 570.525 547.951 C 573.278 548.082, 597.153 541.601, 605.668 538.412 C 610.972 536.425, 617.604 534.126, 620.406 533.303 C 635.739 528.798, 666.928 506.962, 687.832 486.095 C 706.316 467.645, 728.052 437.844, 727.968 431.067 C 727.923 427.439, 726.970 426.498, 713.229 416.509 C 702.893 408.997, 700.805 407.031, 699.992 404.045 C 699.461 402.095, 695.838 389.276, 691.941 375.558 L 684.854 350.616 689.896 335.558 C 706.343 286.441, 709.084 242.979, 698.588 197.723 C 694.756 181.200, 686.832 160.917, 683.747 159.733 C 683.003 159.448, 680.909 159.840, 679.092 160.604 M 238 199 C 235.592 201.408, 235.553 201.917, 237.557 204.777 C 239.058 206.922, 239.696 207, 255.622 207 C 265.090 207, 272.956 206.558, 274.066 205.965 C 276.508 204.658, 276.563 200.820, 274.171 198.655 C 272.628 197.259, 269.815 197, 256.171 197 C 241.333 197, 239.835 197.165, 238 199 M 393 402.867 C 393 423.733, 400.583 443.146, 413.146 454.442 C 421.900 462.312, 434.606 467.022, 446.960 466.976 C 452.737 466.954, 455.596 466.552, 464.750 464.473 C 467.709 463.801, 467.662 461.198, 464.511 451.223 C 460.266 437.785, 451.989 426.737, 438.843 416.961 C 429.141 409.745, 405.949 397.824, 395.250 394.553 C 393.032 393.875, 393 393.995, 393 402.867 M 620.930 397.849 C 591.533 409.508, 571.492 424.550, 563.114 441.246 C 559.089 449.266, 555.089 462.422, 556.306 463.639 C 557.735 465.068, 569.100 466.965, 576 466.927 C 607.220 466.752, 628.860 442.359, 630.716 405.250 C 631.026 399.063, 631.104 394.012, 630.889 394.027 C 630.675 394.042, 626.194 395.762, 620.930 397.849 M 338.819 449.868 C 336.388 450.441, 336.268 450.676, 337.533 452.392 C 338.722 454.004, 340.102 454.255, 346.876 454.092 L 354.824 453.900 369.162 468.294 C 382.172 481.354, 396.787 493.711, 406 499.441 C 414.239 504.565, 417 506.135, 417 505.694 C 417 505.436, 413.738 502.619, 409.750 499.435 C 393.299 486.295, 373.375 467.223, 364.075 455.714 L 358.651 449 350.075 449.118 C 345.359 449.183, 340.294 449.521, 338.819 449.868 M 652 463.135 C 637.594 478.239, 620.579 493.735, 610.050 501.341 C 602.909 506.499, 602.846 507.431, 609.912 503.352 C 622.423 496.131, 644.341 478.364, 658.980 463.576 L 668.460 454 677.075 454 C 684.420 454, 685.957 453.705, 687.500 452 C 688.495 450.900, 688.903 449.996, 688.405 449.991 C 687.907 449.986, 682.550 449.756, 676.500 449.481 L 665.500 448.982 652 463.135 M 497.500 491.384 C 494.608 492.632, 494.580 492.704, 496.724 493.398 C 499.490 494.294, 517.847 494.862, 524.256 494.251 L 529.012 493.798 526.598 491.899 C 524.527 490.270, 522.503 490.006, 512.342 490.045 C 504.964 490.073, 499.369 490.578, 497.500 491.384 M 763.411 520.425 C 739.933 525.760, 716.406 550.910, 707.652 580.031 C 698.731 609.707, 702.069 637.204, 721.496 694.064 C 723.857 700.975, 726.286 709.836, 726.894 713.756 C 730.275 735.546, 725.845 756.759, 714.496 773.120 C 712.062 776.629, 708.849 781.525, 707.356 784 C 705.863 786.475, 703.844 789.284, 702.870 790.243 C 701.412 791.678, 701.284 792.517, 702.147 794.993 C 702.724 796.647, 703.753 798, 704.434 798 C 706.252 798, 718.002 785.442, 722.680 778.500 C 728.481 769.891, 731.601 763.338, 734.674 753.307 C 737.107 745.363, 737.378 742.931, 737.436 728.500 C 737.504 711.399, 735.546 698.592, 731.931 692.500 C 729.383 688.208, 725.598 676.478, 720.458 656.951 C 715.074 636.493, 713.368 626.019, 715.228 624.838 C 715.928 624.394, 721.788 624.024, 728.250 624.015 C 739.842 624, 740 623.969, 740 621.698 C 740 619.462, 739.779 619.407, 732.250 619.765 C 723.136 620.198, 717.535 618.638, 714.757 614.893 C 712.960 612.471, 712.898 611.540, 713.878 601.800 C 716.435 576.397, 728.319 553.992, 746.532 540.238 C 756.487 532.720, 762.487 530.530, 773.178 530.513 C 783.351 530.498, 786.079 531.898, 789.821 539.059 C 791.686 542.626, 792.044 544.542, 791.639 548.797 C 790.926 556.291, 787.680 561.089, 776.050 571.845 C 764.791 582.257, 758.797 590.310, 755.092 600 C 752.870 605.811, 752.601 608.038, 752.555 621 C 752.498 637.454, 753.296 641.380, 762.522 670 C 772.124 699.789, 774.984 714.483, 774.994 734.074 C 775.018 780.961, 750.863 820.694, 706.437 846.848 C 699.055 851.194, 683.183 858, 680.431 858 C 679.552 858, 678.998 858.337, 679.199 858.750 C 682.387 865.294, 682.248 865.175, 685.945 864.503 C 691.446 863.503, 705.650 857.465, 714.500 852.365 C 727.561 844.840, 737.517 837.197, 746.803 827.569 C 764.586 809.132, 775.214 790.451, 781.783 766.085 C 784.193 757.144, 784.370 754.989, 784.406 734 C 784.451 707.606, 783.903 704.632, 772.081 667.121 C 764.109 641.827, 761.989 632.133, 762.024 621.140 C 762.084 602.662, 766.288 595.271, 789.255 573.268 C 799.428 563.522, 801.500 559.162, 801.500 547.500 C 801.500 539.498, 801.197 537.985, 798.770 533.855 C 791.801 522.001, 778.578 516.979, 763.411 520.425 M 393.666 544.263 C 390.636 547.960, 381.353 567.945, 378.692 576.500 C 377.324 580.900, 375.284 588.775, 374.160 594 C 371.792 605.005, 368.656 630.933, 369.293 634.242 C 369.532 635.484, 369.790 634.250, 369.865 631.500 L 370.003 626.500 379.205 635.885 L 388.407 645.270 393.183 663.385 C 395.810 673.348, 399.170 686.074, 400.649 691.664 L 403.340 701.827 418.433 712.823 C 426.734 718.871, 434.255 724.647, 435.146 725.659 C 436.036 726.672, 438.440 733.575, 440.486 741 C 442.533 748.425, 444.855 755.625, 445.647 757 C 447.002 759.352, 447.049 759.205, 446.457 754.500 C 445.781 749.142, 440.189 724.115, 439.372 722.792 C 439.007 722.203, 408.682 699.248, 407.264 698.487 C 407.134 698.418, 404.335 687.817, 401.044 674.930 C 392.574 641.761, 393.004 642.917, 386.493 635.773 L 380.776 629.500 381.360 620.262 C 382.584 600.931, 389.835 573.240, 397.845 557.308 L 401.888 549.267 398.980 546.480 C 397.380 544.948, 396.307 543.313, 396.595 542.847 C 397.719 541.028, 395.398 542.150, 393.666 544.263 M 624.266 545.626 L 621.032 548.798 625.315 557.193 C 630.237 566.839, 635.528 582.021, 634.274 582.903 C 633.807 583.231, 631.021 587.775, 628.083 593 C 622.636 602.689, 609.935 620.313, 599.979 632 C 592.368 640.933, 590 644.092, 590 645.309 C 590 646.837, 594.075 642.801, 604.451 631 C 620.989 612.188, 633.168 594.313, 633.532 588.315 C 634.022 580.246, 635.963 584.032, 638.877 598.741 C 639.940 604.108, 641.337 612.629, 641.980 617.675 C 643.326 628.226, 643.227 628.544, 636.013 637 C 631.786 641.955, 631.054 643.590, 628.630 653.500 C 627.150 659.550, 623.846 672.060, 621.289 681.300 L 616.639 698.100 599.928 710.466 L 583.218 722.832 581.066 732.166 C 579.882 737.300, 578.433 744.650, 577.845 748.500 C 577.258 752.350, 576.387 756.513, 575.910 757.750 C 575.403 759.066, 575.419 760, 575.950 760 C 577.259 760, 580.295 751.207, 583.500 738.134 L 586.287 726.768 591.393 722.897 C 598.480 717.524, 617.231 703.971, 618.762 703.113 C 620.079 702.376, 621.428 698.134, 628.019 674 C 636.913 641.434, 635.232 645.350, 644.253 636.170 C 650.027 630.295, 652.576 628.305, 653.156 629.219 C 654.265 630.966, 654.231 629.050, 652.945 617.211 C 650.273 592.602, 643.165 567.777, 634.453 552.625 C 628.263 541.859, 628.171 541.796, 624.266 545.626 M 443.679 572.690 C 442.769 578.267, 444.533 586.009, 447.824 590.882 C 450.769 595.242, 469.207 615.920, 476.423 622.954 C 479.867 626.311, 481.275 627.125, 482.142 626.258 C 483.009 625.391, 479.638 621.093, 468.454 608.804 C 460.293 599.837, 452.514 591.285, 451.168 589.799 C 449.511 587.971, 448.016 584.092, 446.542 577.799 C 444.385 568.591, 444.357 568.541, 443.679 572.690 M 578.582 572.500 C 576.392 584.243, 575.196 586.588, 566.262 596.655 C 561.456 602.070, 548.294 615.775, 537.012 627.111 C 514.410 649.822, 514.327 649.876, 501.307 650.100 C 493.187 650.239, 490.565 651.132, 490.167 653.895 L 489.834 656.208 501.667 655.504 C 511.445 654.923, 514.212 654.392, 517.599 652.447 C 524.514 648.475, 568 601.978, 575.861 590.148 C 578.765 585.779, 579.491 583.653, 579.815 578.567 C 580.322 570.608, 579.599 567.050, 578.582 572.500 M 389.487 582.281 C 389.088 583.260, 389.043 585.467, 389.387 587.184 C 390.230 591.398, 398.802 605.523, 407.117 616.397 C 414.209 625.672, 432.242 646.091, 432.826 645.507 C 433.499 644.835, 430.989 641.265, 421.573 629.500 C 405.951 609.982, 396.684 595.761, 391.272 583 C 390.337 580.795, 390.126 580.710, 389.487 582.281 M 653.459 640.750 C 653.073 643.515, 651.186 648.217, 648.943 652 C 646.824 655.575, 644.446 660.975, 643.659 664 C 642.871 667.025, 640.593 675.368, 638.597 682.539 L 634.967 695.578 637.405 701.539 C 638.839 705.044, 640.049 706.882, 640.340 706 C 653.655 665.738, 654.080 664.047, 654.727 648.750 C 655.272 635.842, 654.673 632.059, 653.459 640.750 M 368.603 639.851 C 367.042 642.344, 369.064 660.725, 372.062 671.293 C 375.459 683.266, 383.229 704.994, 384.114 704.997 C 384.452 704.999, 385.501 702.977, 386.445 700.505 C 388.437 695.290, 388.494 695.677, 382.297 672.500 C 378.611 658.718, 377.078 654.577, 374.197 650.624 C 372.243 647.942, 370.375 644.117, 370.047 642.124 C 369.632 639.609, 369.190 638.914, 368.603 639.851 M 354.334 681.235 C 338.891 696.064, 327.713 717.103, 323.512 739.250 C 321.350 750.649, 321.555 771.291, 323.937 782.064 C 328.854 804.293, 342.531 827.901, 358.295 841.369 C 363.850 846.115, 366.733 847.572, 363.500 844 C 362.112 842.466, 362.018 841.993, 363.095 841.968 C 364.137 841.945, 364.048 841.593, 362.750 840.608 C 361.788 839.877, 361 838.219, 361 836.924 C 361 834.812, 361.592 835.133, 366.729 840.034 C 372.743 845.773, 372.316 845.153, 361.883 833 C 347.451 816.190, 338.928 800.895, 334.822 784.440 C 331.828 772.439, 331.604 750.366, 334.355 738.500 C 338.656 719.947, 348.117 702.662, 359.983 691.677 L 366.008 686.098 363.932 680.549 C 362.791 677.497, 361.625 675, 361.342 675 C 361.059 675, 357.905 677.806, 354.334 681.235 M 661.250 675.650 C 660.563 675.934, 660 677.052, 660 678.133 C 660 679.214, 659.336 681.384, 658.524 682.954 L 657.048 685.808 665.297 693.860 C 677.298 705.574, 684.704 718.897, 689.699 737.758 C 693.279 751.275, 693.444 770.336, 690.093 783.365 C 684.877 803.647, 674.900 820.881, 659.019 837.042 C 651.914 844.272, 651.441 844.993, 653.849 844.921 C 655.307 844.878, 655.895 844.601, 655.155 844.306 C 653.631 843.699, 661.548 835, 663.625 835 C 664.290 835, 664.991 834.526, 665.185 833.946 C 665.400 833.299, 666.373 833.203, 667.706 833.696 C 669.766 834.460, 669.627 834.761, 664.937 839.677 C 662.220 842.524, 659.211 845.060, 658.249 845.311 C 656.872 845.671, 656.956 845.793, 658.644 845.884 C 661.748 846.052, 679.236 827.270, 685.820 816.697 C 698.803 795.848, 703.616 778.682, 702.696 756.500 C 701.860 736.355, 695.950 717.864, 685.065 701.342 C 678.535 691.431, 663.172 674.857, 661.250 675.650 M 390.619 713.596 L 387.738 716.129 389.366 722.315 C 402.097 770.703, 421.443 839.776, 422.583 840.917 C 423.352 841.685, 422.978 839.547, 421.036 832.069 C 417.922 820.079, 420.036 821.589, 423.655 833.940 C 425.477 840.157, 426.752 845.592, 426.489 846.017 C 426.227 846.442, 426.573 847.006, 427.260 847.270 C 428.024 847.563, 421.914 821.187, 411.533 779.374 C 402.197 741.768, 394.320 711.014, 394.029 711.032 C 393.738 711.049, 392.204 712.203, 390.619 713.596 M 629.715 712.675 C 629.442 713.129, 625.538 728.125, 621.039 746 C 616.540 763.875, 609.271 792.618, 604.886 809.873 C 600.500 827.128, 597.097 841.431, 597.324 841.658 C 597.551 841.885, 599.004 837.533, 600.552 831.988 C 602.274 825.824, 603.660 822.429, 604.120 823.250 C 604.534 823.989, 603.836 828.173, 602.569 832.547 C 599.376 843.572, 598.285 846, 596.525 846 C 595.686 846, 595 846.408, 595 846.906 C 595 847.405, 595.844 847.592, 596.875 847.322 C 598.082 847.007, 599.672 844.456, 601.337 840.166 C 604.714 831.465, 616.056 792.021, 624.533 759.500 C 626.540 751.800, 629.928 739, 632.062 731.054 C 634.196 723.109, 635.843 716.584, 635.721 716.554 C 635.600 716.525, 634.310 715.454, 632.855 714.175 C 631.401 712.896, 629.988 712.221, 629.715 712.675 M 358 859.648 C 341.484 869.296, 337.373 884.311, 347.582 897.696 C 350.979 902.150, 351.986 901.853, 350.800 896.750 C 349.434 890.874, 350.446 879.037, 352.758 873.833 C 355.133 868.488, 359.194 863.597, 364.364 859.851 L 368.300 857 365.400 857.009 C 363.805 857.015, 360.475 858.202, 358 859.648 M 661.965 861.869 C 672.525 872.429, 675.551 885.978, 670.366 899.488 C 669.768 901.048, 669.951 901.097, 672.098 899.953 C 679.265 896.134, 683.140 883.802, 679.703 875.750 C 676.217 867.584, 666.064 858.271, 662.245 859.736 C 661.121 860.168, 660.906 859.962, 661.490 859.015 C 662.017 858.164, 661.921 857.931, 661.224 858.362 C 660.627 858.731, 659.856 858.575, 659.510 858.016 C 659.165 857.457, 658.480 857, 657.989 857 C 657.497 857, 659.286 859.191, 661.965 861.869" stroke="none" fill="#04ccf8" fill-rule="evenodd"/><path d="M 672.874 181.250 C 641.924 215.966, 621.223 245.857, 603.193 281.863 C 596.621 294.987, 595.455 296.781, 595.191 294.170 C 594.802 290.327, 600.926 275.479, 609.284 260 C 619.815 240.496, 640.345 210.846, 654.983 194 C 662.493 185.357, 663.360 183.697, 657.959 188.301 C 655.507 190.392, 649.225 195.612, 644 199.901 C 627.723 213.261, 606.214 232.865, 590.291 248.854 L 575 264.209 574.999 257.354 L 574.999 250.500 570.157 250.430 L 565.315 250.361 564.658 281.843 C 564.296 299.159, 564 323.073, 564 334.986 L 564 356.645 555.750 363.754 C 551.212 367.663, 545.338 373.071, 542.695 375.771 C 537.901 380.669, 537.884 380.712, 535.307 393.840 C 533.887 401.078, 532.316 407, 531.817 407 C 531.318 407, 531.132 405.538, 531.405 403.750 C 531.678 401.962, 532.457 395.396, 533.138 389.157 L 534.375 377.814 546.726 366.136 L 559.077 354.459 560 305.991 C 560.508 279.334, 560.547 257.147, 560.088 256.688 C 559.629 256.229, 553.008 255.177, 545.376 254.351 C 529.059 252.585, 484.468 253.107, 471.703 255.213 L 463.906 256.500 463.972 302.902 C 464.009 328.423, 464.318 350.473, 464.660 351.902 C 465.024 353.422, 470.576 359.688, 478.038 367 L 490.794 379.500 492.060 392.754 C 493.180 404.479, 493.040 408.374, 491.552 406.886 C 491.306 406.640, 490.165 401.052, 489.017 394.469 C 487.868 387.886, 486.723 381.817, 486.471 380.983 C 486.219 380.148, 480.168 374.298, 473.025 367.983 L 460.037 356.500 460.012 345 C 459.974 327.869, 458.764 250.539, 458.530 250.247 C 458.418 250.107, 456.228 250.281, 453.663 250.633 L 449 251.272 449 257.136 C 449 260.361, 448.614 263, 448.142 263 C 447.671 263, 444.008 259.371, 440.002 254.935 C 430.072 243.937, 408.287 223.725, 385.643 204.500 C 375.277 195.700, 365.851 187.825, 364.696 187 C 363.540 186.175, 367.116 191.125, 372.641 198 C 399.965 232, 426.023 277.215, 427.645 293.439 C 428.116 298.152, 427.441 297.090, 417.825 277.998 C 398.667 239.957, 377.892 210.056, 350.604 181.250 C 347.347 177.813, 344.325 175, 343.888 175 C 342.665 175, 337.095 193.199, 334.487 205.716 C 327.017 241.568, 328.978 281.966, 340.009 319.484 C 342.270 327.176, 345.397 336.506, 346.956 340.218 L 349.792 346.967 343.833 367.734 C 340.555 379.155, 336.436 393.960, 334.680 400.633 L 331.487 412.766 319.494 421.572 C 312.897 426.415, 307.333 430.497, 307.129 430.644 C 306.503 431.091, 312.065 440.088, 317.859 448 C 338.469 476.143, 371.617 505.602, 402.500 523.222 C 416.620 531.278, 437.412 541.496, 447 545.091 C 451.125 546.637, 453.821 547.925, 452.990 547.951 C 450.384 548.035, 426.993 541.313, 415.368 537.140 L 404.236 533.144 400.075 538.260 L 395.914 543.375 398.887 546.349 L 401.860 549.322 397.832 557.335 C 389.835 573.240, 382.583 600.945, 381.360 620.262 L 380.776 629.500 386.493 635.773 C 393.004 642.917, 392.574 641.761, 401.044 674.930 C 404.335 687.817, 407.134 698.418, 407.264 698.487 C 408.682 699.248, 439.007 722.203, 439.372 722.792 C 440.189 724.115, 445.781 749.142, 446.457 754.500 C 447.049 759.205, 447.002 759.352, 445.647 757 C 444.855 755.625, 442.533 748.425, 440.486 741 C 438.440 733.575, 436.036 726.672, 435.146 725.659 C 434.255 724.647, 426.734 718.871, 418.433 712.823 L 403.340 701.827 400.649 691.664 C 399.170 686.074, 395.810 673.348, 393.183 663.385 L 388.407 645.270 379.205 635.885 L 370.003 626.500 369.826 631.500 C 369.457 641.964, 369.979 644.328, 373.906 650 C 377.007 654.478, 378.563 658.658, 382.279 672.500 C 388.493 695.647, 388.439 695.284, 386.445 700.505 C 385.501 702.977, 384.449 705, 384.108 705 C 383.390 705, 374.801 681.240, 372.448 672.741 L 370.853 666.982 366.381 670.193 C 362.199 673.196, 357.861 677.367, 360.674 675.680 C 361.444 675.218, 362.562 676.886, 363.928 680.537 L 366.008 686.098 359.983 691.677 C 348.117 702.662, 338.656 719.947, 334.355 738.500 C 331.604 750.366, 331.828 772.439, 334.822 784.440 C 338.928 800.895, 347.451 816.190, 361.883 833 C 372.316 845.153, 372.743 845.773, 366.729 840.034 C 361.592 835.133, 361 834.812, 361 836.924 C 361 838.219, 361.788 839.877, 362.750 840.608 C 364.048 841.593, 364.137 841.945, 363.095 841.968 C 362.018 841.993, 362.112 842.466, 363.500 844 C 365.954 846.712, 364.244 846.539, 361.064 843.754 C 359.028 841.969, 359.107 842.178, 361.451 844.768 C 364.323 847.942, 364.350 848.067, 362.451 849.410 C 353.266 855.909, 348.063 861.693, 344.379 869.500 C 341.533 875.532, 341.247 879.169, 344.063 873.524 C 347.926 865.780, 359.328 857, 365.522 857 C 368.289 857, 368.284 857.012, 364.364 859.851 C 354.649 866.889, 350.657 874.745, 350.570 887 C 350.469 901.212, 350.593 901.551, 356.959 904.358 C 365.188 907.987, 371.824 909.147, 389 909.956 C 399.925 910.470, 407.304 911.385, 414 913.056 C 422.637 915.211, 425.590 915.424, 446.500 915.401 C 470.013 915.375, 476.385 914.700, 489.081 910.885 C 498.540 908.043, 526.705 908.523, 538.500 911.727 C 558.945 917.280, 590.933 917.405, 613.500 912.019 C 618.811 910.751, 626.709 909.949, 637 909.633 C 653.273 909.132, 659.218 907.945, 668.179 903.407 C 670.753 902.104, 673.170 900.535, 673.550 899.919 C 674.017 899.163, 673.505 899.195, 671.969 900.017 C 669.964 901.090, 669.776 901.027, 670.366 899.488 C 675.551 885.978, 672.525 872.429, 661.965 861.869 C 659.286 859.191, 657.497 857, 657.989 857 C 658.480 857, 659.165 857.457, 659.510 858.016 C 659.856 858.575, 660.627 858.731, 661.224 858.362 C 661.921 857.931, 662.017 858.164, 661.490 859.015 C 660.906 859.962, 661.121 860.168, 662.245 859.736 C 666.251 858.199, 677.344 868.798, 680.227 876.916 L 681.500 880.500 682 873.584 C 682.494 866.755, 682.544 866.652, 686 865.364 L 689.500 864.059 685.945 864.604 C 682.269 865.168, 682.367 865.253, 679.199 858.750 C 678.998 858.337, 679.552 858, 680.431 858 C 683.183 858, 699.055 851.194, 706.437 846.848 C 750.863 820.694, 775.018 780.961, 774.994 734.074 C 774.984 714.483, 772.124 699.789, 762.522 670 C 753.296 641.380, 752.498 637.454, 752.555 621 C 752.601 608.038, 752.870 605.811, 755.092 600 C 758.797 590.310, 764.791 582.257, 776.050 571.845 C 787.680 561.089, 790.926 556.291, 791.639 548.797 C 792.044 544.542, 791.686 542.626, 789.821 539.059 C 786.079 531.898, 783.351 530.498, 773.178 530.513 C 762.487 530.530, 756.487 532.720, 746.532 540.238 C 728.319 553.992, 716.435 576.397, 713.878 601.800 C 712.898 611.540, 712.960 612.471, 714.757 614.893 C 717.535 618.638, 723.136 620.198, 732.250 619.765 C 739.779 619.407, 740 619.462, 740 621.698 C 740 623.969, 739.842 624, 728.250 624.015 C 721.788 624.024, 715.928 624.394, 715.228 624.838 C 713.368 626.019, 715.074 636.493, 720.458 656.951 C 725.598 676.478, 729.383 688.208, 731.931 692.500 C 735.546 698.592, 737.504 711.399, 737.436 728.500 C 737.378 742.931, 737.107 745.363, 734.674 753.307 C 731.601 763.338, 728.481 769.891, 722.680 778.500 C 718.002 785.442, 706.252 798, 704.434 798 C 703.753 798, 702.724 796.647, 702.147 794.993 C 701.279 792.501, 701.410 791.687, 702.914 790.243 C 703.912 789.284, 705.296 787.375, 705.990 786 C 707.118 783.763, 706.889 783.843, 703.810 786.768 C 701.917 788.565, 700.128 789.795, 699.834 789.500 C 699.540 789.206, 697.637 792.975, 695.606 797.875 C 693.575 802.774, 689.346 810.942, 686.207 816.025 C 679.281 827.241, 661.909 846.061, 658.644 845.884 C 656.956 845.793, 656.872 845.671, 658.249 845.311 C 659.211 845.060, 662.220 842.524, 664.937 839.677 C 669.627 834.761, 669.766 834.460, 667.706 833.696 C 666.373 833.203, 665.400 833.299, 665.185 833.946 C 664.991 834.526, 664.290 835, 663.625 835 C 661.548 835, 653.631 843.699, 655.155 844.306 C 655.895 844.601, 655.307 844.878, 653.849 844.921 C 651.441 844.993, 651.914 844.272, 659.019 837.042 C 674.900 820.881, 684.877 803.647, 690.093 783.365 C 693.444 770.336, 693.279 751.275, 689.699 737.758 C 684.704 718.897, 677.298 705.574, 665.297 693.860 L 657.048 685.808 658.524 682.954 C 659.336 681.384, 660 679.214, 660 678.133 C 660 677.052, 660.515 675.995, 661.144 675.785 C 661.773 675.576, 660.085 673.768, 657.394 671.769 L 652.500 668.134 651.684 670.817 C 651.007 673.046, 641.986 701.023, 640.340 706 C 640.049 706.882, 638.839 705.044, 637.405 701.539 L 634.967 695.578 638.597 682.539 C 640.593 675.368, 642.871 667.025, 643.659 664 C 644.446 660.975, 646.857 655.570, 649.016 651.988 C 652.229 646.658, 653.061 644.188, 653.601 638.382 C 654.680 626.777, 653.711 626.546, 644.267 636.156 C 635.230 645.352, 636.914 641.431, 628.019 674 C 621.428 698.134, 620.079 702.376, 618.762 703.113 C 617.231 703.971, 598.480 717.524, 591.393 722.897 L 586.287 726.768 583.500 738.134 C 580.295 751.207, 577.259 760, 575.950 760 C 575.419 760, 575.403 759.066, 575.910 757.750 C 576.387 756.513, 577.258 752.350, 577.845 748.500 C 578.433 744.650, 579.882 737.300, 581.066 732.166 L 583.218 722.832 599.928 710.466 L 616.639 698.100 621.289 681.300 C 623.846 672.060, 627.150 659.550, 628.630 653.500 C 631.054 643.590, 631.786 641.955, 636.013 637 C 643.227 628.544, 643.326 628.226, 641.980 617.675 C 641.337 612.629, 639.940 604.108, 638.877 598.741 C 635.963 584.032, 634.022 580.246, 633.532 588.315 C 633.168 594.313, 620.989 612.188, 604.451 631 C 594.075 642.801, 590 646.837, 590 645.309 C 590 644.092, 592.368 640.933, 599.979 632 C 609.935 620.313, 622.636 602.689, 628.083 593 C 631.021 587.775, 633.807 583.231, 634.274 582.903 C 635.533 582.018, 630.229 566.823, 625.266 557.095 L 620.933 548.604 623.966 546.229 C 625.635 544.923, 627 543.347, 627 542.725 C 627 542.104, 625.563 540.112, 623.806 538.300 C 620.703 535.098, 620.667 534.963, 622.556 533.549 C 624.265 532.269, 623.937 532.260, 619.832 533.474 C 617.264 534.234, 610.857 536.468, 605.594 538.439 C 597.136 541.607, 573.267 548.081, 570.525 547.951 C 569.961 547.925, 572.875 546.634, 577 545.084 C 596.685 537.686, 616.343 527.466, 635.500 514.670 C 667.442 493.335, 691.567 469.957, 710.711 441.789 C 715.719 434.419, 717.048 431.763, 716.224 430.770 C 715.626 430.049, 709.982 425.674, 703.681 421.046 L 692.224 412.632 687.022 394.066 C 684.161 383.855, 680.086 369.324, 677.968 361.775 L 674.116 348.050 678.023 337.683 C 683.278 323.736, 689.589 298.821, 691.673 283.789 C 693.757 268.753, 694.039 234.287, 692.174 222.500 C 689.087 202.995, 681.828 174, 680.032 174 C 679.650 174, 676.429 177.262, 672.874 181.250 M 393 402.867 C 393 423.733, 400.583 443.146, 413.146 454.442 C 421.900 462.312, 434.606 467.022, 446.960 466.976 C 452.737 466.954, 455.596 466.552, 464.750 464.473 C 467.709 463.801, 467.662 461.198, 464.511 451.223 C 460.266 437.785, 451.989 426.737, 438.843 416.961 C 429.141 409.745, 405.949 397.824, 395.250 394.553 C 393.032 393.875, 393 393.995, 393 402.867 M 620.930 397.849 C 591.533 409.508, 571.492 424.550, 563.114 441.246 C 559.089 449.266, 555.089 462.422, 556.306 463.639 C 557.735 465.068, 569.100 466.965, 576 466.927 C 607.220 466.752, 628.860 442.359, 630.716 405.250 C 631.026 399.063, 631.104 394.012, 630.889 394.027 C 630.675 394.042, 626.194 395.762, 620.930 397.849 M 338.819 449.868 C 336.388 450.441, 336.268 450.676, 337.533 452.392 C 338.722 454.004, 340.102 454.255, 346.876 454.092 L 354.824 453.900 369.162 468.294 C 382.172 481.354, 396.787 493.711, 406 499.441 C 414.239 504.565, 417 506.135, 417 505.694 C 417 505.436, 413.738 502.619, 409.750 499.435 C 393.299 486.295, 373.375 467.223, 364.075 455.714 L 358.651 449 350.075 449.118 C 345.359 449.183, 340.294 449.521, 338.819 449.868 M 652 463.135 C 637.594 478.239, 620.579 493.735, 610.050 501.341 C 602.909 506.499, 602.846 507.431, 609.912 503.352 C 622.423 496.131, 644.341 478.364, 658.980 463.576 L 668.460 454 677.075 454 C 684.420 454, 685.957 453.705, 687.500 452 C 688.495 450.900, 688.903 449.996, 688.405 449.991 C 687.907 449.986, 682.550 449.756, 676.500 449.481 L 665.500 448.982 652 463.135 M 497.500 491.384 C 494.608 492.632, 494.580 492.704, 496.724 493.398 C 499.490 494.294, 517.847 494.862, 524.256 494.251 L 529.012 493.798 526.598 491.899 C 524.527 490.270, 522.503 490.006, 512.342 490.045 C 504.964 490.073, 499.369 490.578, 497.500 491.384 M 443.679 572.690 C 442.769 578.267, 444.533 586.009, 447.824 590.882 C 450.769 595.242, 469.207 615.920, 476.423 622.954 C 479.867 626.311, 481.275 627.125, 482.142 626.258 C 483.009 625.391, 479.638 621.093, 468.454 608.804 C 460.293 599.837, 452.514 591.285, 451.168 589.799 C 449.511 587.971, 448.016 584.092, 446.542 577.799 C 444.385 568.591, 444.357 568.541, 443.679 572.690 M 578.582 572.500 C 576.392 584.243, 575.196 586.588, 566.262 596.655 C 561.456 602.070, 548.294 615.775, 537.012 627.111 C 514.410 649.822, 514.327 649.876, 501.307 650.100 C 493.187 650.239, 490.565 651.132, 490.167 653.895 L 489.834 656.208 501.667 655.504 C 511.445 654.923, 514.212 654.392, 517.599 652.447 C 524.514 648.475, 568 601.978, 575.861 590.148 C 578.765 585.779, 579.491 583.653, 579.815 578.567 C 580.322 570.608, 579.599 567.050, 578.582 572.500 M 389.487 582.281 C 389.088 583.260, 389.043 585.467, 389.387 587.184 C 390.230 591.398, 398.802 605.523, 407.117 616.397 C 414.209 625.672, 432.242 646.091, 432.826 645.507 C 433.499 644.835, 430.989 641.265, 421.573 629.500 C 405.951 609.982, 396.684 595.761, 391.272 583 C 390.337 580.795, 390.126 580.710, 389.487 582.281 M 390.619 713.596 L 387.738 716.129 389.366 722.315 C 402.097 770.703, 421.443 839.776, 422.583 840.917 C 423.352 841.685, 422.978 839.547, 421.036 832.069 C 417.922 820.079, 420.036 821.589, 423.655 833.940 C 425.477 840.157, 426.752 845.592, 426.489 846.017 C 426.227 846.442, 426.573 847.006, 427.260 847.270 C 428.024 847.563, 421.914 821.187, 411.533 779.374 C 402.197 741.768, 394.320 711.014, 394.029 711.032 C 393.738 711.049, 392.204 712.203, 390.619 713.596 M 629.715 712.675 C 629.442 713.129, 625.538 728.125, 621.039 746 C 616.540 763.875, 609.271 792.618, 604.886 809.873 C 600.500 827.128, 597.097 841.431, 597.324 841.658 C 597.551 841.885, 599.004 837.533, 600.552 831.988 C 602.274 825.824, 603.660 822.429, 604.120 823.250 C 604.534 823.989, 603.836 828.173, 602.569 832.547 C 599.376 843.572, 598.285 846, 596.525 846 C 595.686 846, 595 846.408, 595 846.906 C 595 847.405, 595.844 847.592, 596.875 847.322 C 598.082 847.007, 599.672 844.456, 601.337 840.166 C 604.714 831.465, 616.056 792.021, 624.533 759.500 C 626.540 751.800, 629.928 739, 632.062 731.054 C 634.196 723.109, 635.843 716.584, 635.721 716.554 C 635.600 716.525, 634.310 715.454, 632.855 714.175 C 631.401 712.896, 629.988 712.221, 629.715 712.675" stroke="none" fill="#071018" fill-rule="evenodd"/></svg>